<svg xmlns="http://www.w3.org/2000/svg" aria-label="Git" role="img" viewBox="0 0 129 104"><g fill="#2f2707"><path d="M16.08 45.65C16.08 50.64 18.82 54.1 25.54 54.1C31.23 54.1 35.1 50.74 35.1 45.45C35.1 39.45 31.64 36.29 25.84 36.29C25.84 36.29 25.84 36.29 25.84 36.29L25.84 36.29C19.33 38.12 16.08 41.24 16.08 45.65ZM12.01 88.38C12.01 92.45 17.19 93.67 24.32 93.67C30.22 93.67 38.25 93.26 38.25 87.77C38.25 84.51 34.39 84.31 29.5 84C28.51 83.94 23.56 83.6 14.65 82.99L14.65 82.99C12.89 85.23 12.01 87.02 12.01 88.38ZM48.53 46.87C48.53 58.17 39.68 64.78 26.86 64.78C23.6 64.78 20.65 64.37 18.82 63.86C18.6 64.22 17.48 66.02 15.46 69.25C21.45 69.62 24.77 69.82 25.43 69.86C43.03 70.99 53.41 71.5 53.41 85.02C53.41 96.72 43.14 103.33 25.43 103.33C7.02 103.33 0 98.65 0 90.62C0 86.04 2.04 83.6 5.6 80.24C2.24 78.82 1.12 76.28 1.12 73.53C1.12 71.29 2.24 69.25 4.07 67.32C5.9 65.39 7.94 63.45 10.38 61.22C5.39 58.77 1.63 53.48 1.63 45.95C1.63 34.26 9.36 26.22 24.92 26.22C29.3 26.22 31.95 26.63 34.29 27.24C35.61 27.24 42.22 27.24 54.12 27.24L54.12 35.88L44.76 36.6L44.76 36.6C47.27 40.33 48.53 43.75 48.53 46.87Z"/><path d="M62.87 8.95C62.87 3.16 66.22 0 72.02 0C77.92 0 81.28 3.16 81.28 8.95C81.28 14.75 77.92 18.11 72.02 18.11C72.02 18.11 72.02 18.11 72.02 18.11L72.02 18.11C65.92 15.87 62.87 12.82 62.87 8.95ZM58.9 71.21C62.01 70.79 63.74 70.55 64.09 70.51C65.51 70.3 65.71 70 65.71 68.47C65.71 65.48 65.71 41.55 65.71 38.56C65.71 37.44 65.41 36.72 64.39 36.42C64.02 36.29 62.19 35.65 58.9 34.49L60.02 26.25L81.08 26.25C81.08 51.58 81.08 65.65 81.08 68.47C81.08 70.1 81.17 70.3 82.7 70.51C83.05 70.55 84.78 70.79 87.89 71.21L87.89 79.25L58.9 79.25L58.9 79.25L58.9 71.21Z"/><path d="M128.12 75.3C123.75 77.44 117.34 79.37 111.54 79.37C99.43 79.37 94.86 74.49 94.86 62.99C94.86 60.33 94.86 39 94.86 36.34C94.86 35.73 94.86 35.32 94.04 35.32C93.56 35.32 91.19 35.32 86.92 35.32C86.92 29.89 86.92 26.87 86.92 26.27C95.87 25.25 99.43 20.77 100.55 9.68C101.2 9.68 104.42 9.68 110.22 9.68C110.22 18.35 110.22 23.17 110.22 24.13C110.22 24.84 110.22 25.15 111.03 25.15C111.99 25.15 116.77 25.15 125.37 25.15L125.37 35.32L110.22 35.32C110.22 49.91 110.22 58.01 110.22 59.64C110.22 65.64 111.64 67.98 117.13 67.98C119.99 67.98 122.93 67.26 125.37 66.35C125.56 66.95 126.47 69.93 128.12 75.3"/></g></svg>