<svg xmlns="http://www.w3.org/2000/svg" aria-label="Node.js" role="img" viewBox="0 0 115 130"><path d="M36.66 118.87C34.28 117.56 35.48 117.09 36.19 116.85C39.4 115.78 40 115.54 43.34 113.64C43.69 113.4 44.17 113.51 44.52 113.75C45.74 114.48 55.45 120.29 56.67 121.01C57.14 121.25 57.74 121.25 58.1 121.01C62.85 118.26 100.85 96.26 105.6 93.51C106.08 93.27 106.32 92.8 106.32 92.2C106.32 86.72 106.32 42.81 106.32 37.32C106.32 36.73 106.08 36.25 105.6 36.01C100.85 33.27 62.85 11.37 58.1 8.63C57.62 8.39 57.03 8.39 56.67 8.63C51.92 11.37 13.92 33.27 9.17 36.01C8.68 36.25 8.45 36.84 8.45 37.32C8.45 42.81 8.45 86.72 8.45 92.2C8.45 92.69 8.68 93.27 9.17 93.51C10.47 94.26 20.84 100.27 22.14 101.02C29.16 104.58 33.57 100.42 33.57 96.25C33.57 90.83 33.57 47.5 33.57 42.09C33.57 41.37 34.17 40.66 35 40.66C35.61 40.66 40.46 40.66 41.07 40.66C41.78 40.66 42.5 41.25 42.5 42.09C42.5 47.5 42.5 90.83 42.5 96.25C42.5 105.65 37.38 111.13 28.45 111.13C25.71 111.13 23.57 111.13 17.5 108.16C16.24 107.45 6.25 101.73 5 101.02C1.91 99.23 0 95.9 0 92.32C0 86.83 0 42.93 0 37.44C0 33.87 1.91 30.54 5 28.75C9.74 26 47.74 3.99 52.5 1.24C55.48 -0.41 59.53 -0.41 62.5 1.24C67.26 3.99 105.26 26 110 28.75C113.09 30.54 115 33.87 115 37.44C115 42.93 115 86.83 115 92.32C115 95.9 113.09 99.23 110 101.02C105.26 103.77 67.26 125.76 62.5 128.51C60.95 129.23 59.17 129.58 57.5 129.58C55.72 129.58 54.05 129.11 52.5 128.28C50.92 127.34 38.25 119.82 36.66 118.87ZM48.46 72.79C49.07 72.79 54.03 72.79 54.65 72.79C55.36 72.79 55.95 73.28 55.95 73.99C56.9 80.3 59.64 83.39 72.26 83.39C82.26 83.39 86.55 81.14 86.55 75.77C86.55 72.68 85.36 70.41 69.76 68.87C56.79 67.56 48.69 64.71 48.69 54.35C48.69 44.7 56.79 38.99 70.36 38.99C85.6 38.99 93.1 44.23 94.05 55.65C94.05 56.01 93.93 56.37 93.7 56.72C93.45 56.96 93.1 57.2 92.74 57.2C92.12 57.2 87.17 57.2 86.55 57.2C85.95 57.2 85.36 56.72 85.24 56.13C83.81 49.59 80.12 47.44 70.36 47.44C59.41 47.44 58.1 51.26 58.1 54.11C58.1 57.56 59.64 58.63 74.4 60.54C89.05 62.44 95.95 65.18 95.95 75.42C95.84 85.9 87.26 91.85 72.15 91.85C51.31 91.85 47.02 82.32 47.02 74.23C47.02 73.52 47.62 72.79 48.46 72.79Z" fill="#539e43"/></svg>