<svg xmlns="http://www.w3.org/2000/svg"  aria-label="jQuery" role="img" viewBox="0 0 91 91"><g fill="#21609B"><path d="M88.7084138,66.6365058 L88.3062682,67.678161 C81.4550804,81.0176246 69.3171494,89.2027586 52.0033104,89.5637088 C43.9093946,89.7304522 36.1970268,87.6540076 31.1594176,85.3951264 C20.286774,80.5105288 11.1423755,71.4514636 6.14792338,61.7725058 C-1.01615326,47.897502 -2.30792338,28.596475 12.5881379,14.180046 C12.8176552,14.180046 10.7814253,17.3059923 11.0109425,17.3059923 L10.6009502,18.6399387 C-0.133394636,52.2465594 32.9376858,81.046069 65.0857932,77.7523984 C72.8118928,76.9608582 82.6644598,72.729502 88.7084138,66.6365058"/><path d="M69.2543754,52.7399234 C77.3424062,52.7958314 85.7904062,49.0156628 90.792705,43.7083218 C86.416184,54.8183296 73.7436934,61.9598468 56.7486284,59.6882146 C42.5195402,57.7843984 28.9642912,43.4650728 27.5675708,29.1173026 C26.5465134,18.675249 30.1864214,12.4429732 36.183295,4.88361686 C34.0990038,8.83739464 33.3202146,11.8868352 33.1260076,13.8318467 C30.8475096,36.4196782 51.1695938,52.6222222 69.2543754,52.7399234"/><path d="M89.980567,24.6848736 C88.7231264,27.5685518 81.483525,33.0151724 78.2869578,33.6958774 C65.6281992,36.3922146 57.5205518,30.389456 53.2744828,23.558866 C52.64282,22.5378084 51.4756168,19.7522146 51.2666974,19.0430651 C49.619862,13.443433 50.3770728,4.9738544 55.290115,0.58948659 C53.810023,4.75806896 53.5942376,9.60049042 54.3730268,12.7480153 C54.8448122,14.6518314 56.282728,17.9739464 57.7216246,20.0641226 C60.340475,23.8717548 62.0010422,24.7966896 65.3643524,26.8182068 C66.878774,27.7284292 68.5040306,28.4581762 69.2063142,28.659249 C72.3950344,29.5969348 79.1275402,32.0706206 89.980567,24.6848736"/></g></svg>